<?xml version="1.0" encoding="UTF-8" standalone="no"?>
<svg
   xmlns:dc="http://purl.org/dc/elements/1.1/"
   xmlns:cc="http://creativecommons.org/ns#"
   xmlns:rdf="http://www.w3.org/1999/02/22-rdf-syntax-ns#"
   xmlns:svg="http://www.w3.org/2000/svg"
   xmlns="http://www.w3.org/2000/svg"
   xmlns:sodipodi="http://sodipodi.sourceforge.net/DTD/sodipodi-0.dtd"
   xmlns:inkscape="http://www.inkscape.org/namespaces/inkscape"
   height="320"
   id="svg1395"
   inkscape:version="0.47 r22583"
   sodipodi:docname="anonymous-arrows-move.svg"
   sodipodi:version="0.32"
   width="320"
   inkscape:output_extension="org.inkscape.output.svg.inkscape"
   inkscape:export-filename="/home/joanna/gfx/vector/aiga/aiga_stairs_up_.png"
   inkscape:export-xdpi="49.323254"
   inkscape:export-ydpi="49.323254"
   version="1.1">
  <metadata
     id="metadata3">
    <rdf:RDF>
      <cc:Work
         rdf:about="">
        <dc:title>AIGA_Symbol_Signs</dc:title>
        <dc:description>EPS converted from  http://aiga.org</dc:description>
        <dc:subject>
          <rdf:Bag>
            <rdf:li>symbol</rdf:li>
            <rdf:li>mapsym</rdf:li>
          </rdf:Bag>
        </dc:subject>
        <dc:publisher>
          <cc:Agent
             rdf:about="http://www.openclipart.org/">
            <dc:title>Open Clip Art Library</dc:title>
          </cc:Agent>
        </dc:publisher>
        <dc:creator>
          <cc:Agent>
            <dc:title>Jean-Victor Balin</dc:title>
          </cc:Agent>
        </dc:creator>
        <dc:rights>
          <cc:Agent>
            <dc:title>Jean-Victor Balin</dc:title>
          </cc:Agent>
        </dc:rights>
        <dc:date />
        <dc:format>image/svg+xml</dc:format>
        <dc:type
           rdf:resource="http://purl.org/dc/dcmitype/StillImage" />
        <cc:license
           rdf:resource="http://web.resource.org/cc/PublicDomain" />
        <dc:language>en</dc:language>
      </cc:Work>
      <cc:License
         rdf:about="http://web.resource.org/cc/PublicDomain">
        <cc:permits
           rdf:resource="http://web.resource.org/cc/Reproduction" />
        <cc:permits
           rdf:resource="http://web.resource.org/cc/Distribution" />
        <cc:permits
           rdf:resource="http://web.resource.org/cc/DerivativeWorks" />
      </cc:License>
    </rdf:RDF>
  </metadata>
  <sodipodi:namedview
     bordercolor="#666666"
     borderopacity="1.0"
     id="base"
     inkscape:current-layer="svg1395"
     inkscape:cx="302.29229"
     inkscape:cy="198.61989"
     inkscape:pageopacity="0.0"
     inkscape:pageshadow="2"
     inkscape:window-height="754"
     inkscape:window-width="1280"
     inkscape:window-x="0"
     inkscape:window-y="25"
     inkscape:zoom="1.2279853"
     pagecolor="#ffffff"
     showgrid="false"
     inkscape:window-maximized="1" />
  <defs
     id="defs1397">
    <inkscape:perspective
       sodipodi:type="inkscape:persp3d"
       inkscape:vp_x="0 : 182.57249 : 1"
       inkscape:vp_y="0 : 1000 : 0"
       inkscape:vp_z="439.75201 : 182.57249 : 1"
       inkscape:persp3d-origin="219.87601 : 121.715 : 1"
       id="perspective14" />
    <marker
       id="ArrowEnd"
       markerHeight="3"
       markerUnits="strokeWidth"
       markerWidth="4"
       orient="auto"
       refX="0"
       refY="5"
       viewBox="0 0 10 10">
      <path
         d="M 0,0 10,5 0,10 z"
         id="path1400" />
    </marker>
    <marker
       id="ArrowStart"
       markerHeight="3"
       markerUnits="strokeWidth"
       markerWidth="4"
       orient="auto"
       refX="10"
       refY="5"
       viewBox="0 0 10 10">
      <path
         d="M 10,0 0,5 10,10 z"
         id="path1403" />
    </marker>
    <inkscape:perspective
       id="perspective2828"
       inkscape:persp3d-origin="0.5 : 0.33333333 : 1"
       inkscape:vp_z="1 : 0.5 : 1"
       inkscape:vp_y="0 : 1000 : 0"
       inkscape:vp_x="0 : 0.5 : 1"
       sodipodi:type="inkscape:persp3d" />
    <inkscape:perspective
       id="perspective2850"
       inkscape:persp3d-origin="0.5 : 0.33333333 : 1"
       inkscape:vp_z="1 : 0.5 : 1"
       inkscape:vp_y="0 : 1000 : 0"
       inkscape:vp_x="0 : 0.5 : 1"
       sodipodi:type="inkscape:persp3d" />
    <inkscape:perspective
       id="perspective2885"
       inkscape:persp3d-origin="0.5 : 0.33333333 : 1"
       inkscape:vp_z="1 : 0.5 : 1"
       inkscape:vp_y="0 : 1000 : 0"
       inkscape:vp_x="0 : 0.5 : 1"
       sodipodi:type="inkscape:persp3d" />
  </defs>
  <path
     style="fill:#000000;stroke:none"
     id="path1409"
     d="M 314.62652,147.78208 264.56831,97.723869 C 250.77972,83.935286 229.03619,104.61816 243.3551,118.93707 l 25.65879,25.65879 -97.59771,0 c -21.63676,7e-4 -21.99031,30.95501 0.99561,30.95572 l 96.27824,-0.13294 -25.39645,25.39645 c -13.86141,13.71575 6.99824,35.63606 21.34968,21.34967 l 49.74779,-49.74779 c 7.42462,-7.42462 7.45291,-17.41745 0.23547,-24.63489 z" />
  <path
     style="fill:#000000;stroke:none"
     id="path1409-4"
     d="m 5.373483,147.78208 50.05821,-50.058211 c 13.78859,-13.788583 35.53212,6.894291 21.21321,21.213201 l -25.65879,25.65879 97.597707,0 c 21.63676,7e-4 21.99031,30.95501 -0.99561,30.95572 l -96.278237,-0.13294 25.39645,25.39645 c 13.86141,13.71575 -6.99824,35.63606 -21.34968,21.34967 L 5.608953,172.41697 c -7.42462,-7.42462 -7.45291,-17.41745 -0.23547,-24.63489 z" />
  <path
     style="fill:#000000;stroke:none"
     id="path1409-4-9"
     d="m 172.21792,5.373483 50.05821,50.05821 c 13.78859,13.78859 -6.89429,35.532117 -21.2132,21.213207 l -25.65879,-25.658787 0,97.597707 c -7e-4,21.63676 -30.95501,21.99031 -30.95572,-0.99561 L 144.58136,51.309973 119.18491,76.70642 C 105.46916,90.56783 83.548849,69.708183 97.835239,55.356743 L 147.58303,5.608953 c 7.42462,-7.42462 17.41745,-7.45291 24.63489,-0.23547 z" />
  <path
     style="fill:#000000;stroke:none"
     id="path1409-4-9-8"
     d="m 172.21792,314.62652 50.05821,-50.05821 c 13.78859,-13.78859 -6.89429,-35.53212 -21.2132,-21.21321 l -25.65879,25.65879 0,-97.59771 c -7e-4,-21.63676 -30.95501,-21.99031 -30.95572,0.99561 l 0.13294,96.27824 -25.39645,-25.39645 c -13.71575,-13.86141 -35.636062,6.99824 -21.349672,21.34968 l 49.747792,49.74779 c 7.42462,7.42462 17.41745,7.45291 24.63489,0.23547 z" />
</svg>
